solid ascii
  facet normal 0.000000e+000 -1.000000e+000 0.000000e+000
    outer loop
      vertex   -6.500000e+001 -6.500000e+001 6.500000e+001
      vertex   -6.500000e+001 -6.500000e+001 -6.500000e+001
      vertex   6.500000e+001 -6.500000e+001 6.500000e+001
    endloop
  endfacet
  facet normal 0.000000e+000 -1.000000e+000 0.000000e+000
    outer loop
      vertex   6.500000e+001 -6.500000e+001 6.500000e+001
      vertex   -6.500000e+001 -6.500000e+001 -6.500000e+001
      vertex   6.500000e+001 -6.500000e+001 -6.500000e+001
    endloop
  endfacet
  facet normal -1.000000e+000 0.000000e+000 2.186285e-016
    outer loop
      vertex   -6.500000e+001 6.500000e+001 6.500000e+001
      vertex   -6.500000e+001 6.500000e+001 -6.500000e+001
      vertex   -6.500000e+001 -6.500000e+001 6.500000e+001
    endloop
  endfacet
  facet normal -1.000000e+000 0.000000e+000 2.186285e-016
    outer loop
      vertex   -6.500000e+001 -6.500000e+001 6.500000e+001
      vertex   -6.500000e+001 6.500000e+001 -6.500000e+001
      vertex   -6.500000e+001 -6.500000e+001 -6.500000e+001
    endloop
  endfacet
  facet normal 2.186285e-016 1.000000e+000 0.000000e+000
    outer loop
      vertex   6.500000e+001 6.500000e+001 6.500000e+001
      vertex   6.500000e+001 6.500000e+001 -6.500000e+001
      vertex   -6.500000e+001 6.500000e+001 6.500000e+001
    endloop
  endfacet
  facet normal 2.186285e-016 1.000000e+000 0.000000e+000
    outer loop
      vertex   -6.500000e+001 6.500000e+001 6.500000e+001
      vertex   6.500000e+001 6.500000e+001 -6.500000e+001
      vertex   -6.500000e+001 6.500000e+001 -6.500000e+001
    endloop
  endfacet
  facet normal 1.000000e+000 0.000000e+000 0.000000e+000
    outer loop
      vertex   6.500000e+001 -6.500000e+001 6.500000e+001
      vertex   6.500000e+001 -6.500000e+001 -6.500000e+001
      vertex   6.500000e+001 6.500000e+001 6.500000e+001
    endloop
  endfacet
  facet normal 1.000000e+000 0.000000e+000 0.000000e+000
    outer loop
      vertex   6.500000e+001 6.500000e+001 6.500000e+001
      vertex   6.500000e+001 -6.500000e+001 -6.500000e+001
      vertex   6.500000e+001 6.500000e+001 -6.500000e+001
    endloop
  endfacet
  facet normal 3.279428e-016 0.000000e+000 1.000000e+000
    outer loop
      vertex   -6.500000e+001 -6.500000e+001 6.500000e+001
      vertex   6.500000e+001 -6.500000e+001 6.500000e+001
      vertex   -6.500000e+001 6.500000e+001 6.500000e+001
    endloop
  endfacet
  facet normal 3.279428e-016 0.000000e+000 1.000000e+000
    outer loop
      vertex   -6.500000e+001 6.500000e+001 6.500000e+001
      vertex   6.500000e+001 -6.500000e+001 6.500000e+001
      vertex   6.500000e+001 6.500000e+001 6.500000e+001
    endloop
  endfacet
  facet normal 2.186285e-016 0.000000e+000 -1.000000e+000
    outer loop
      vertex   6.500000e+001 -6.500000e+001 -6.500000e+001
      vertex   -6.500000e+001 -6.500000e+001 -6.500000e+001
      vertex   6.500000e+001 6.500000e+001 -6.500000e+001
    endloop
  endfacet
  facet normal 2.186285e-016 0.000000e+000 -1.000000e+000
    outer loop
      vertex   6.500000e+001 6.500000e+001 -6.500000e+001
      vertex   -6.500000e+001 -6.500000e+001 -6.500000e+001
      vertex   -6.500000e+001 6.500000e+001 -6.500000e+001
    endloop
  endfacet
endsolid
