solid ascii
  facet normal 9.914449e-001 -1.305262e-001 0.000000e+000
    outer loop
      vertex   -6.671637e+001 -7.449350e+001 -2.777000e+002
      vertex   -6.650000e+001 -7.285000e+001 -2.777000e+002
      vertex   -6.650000e+001 -7.285000e+001 -7.770000e+001
    endloop
  endfacet
  facet normal 9.914449e-001 -1.305262e-001 0.000000e+000
    outer loop
      vertex   -6.671637e+001 -7.449350e+001 -7.770000e+001
      vertex   -6.671637e+001 -7.449350e+001 -2.777000e+002
      vertex   -6.650000e+001 -7.285000e+001 -7.770000e+001
    endloop
  endfacet
  facet normal 9.238795e-001 -3.826834e-001 0.000000e+000
    outer loop
      vertex   -6.671637e+001 -7.449350e+001 -7.770000e+001
      vertex   -6.735074e+001 -7.602500e+001 -2.777000e+002
      vertex   -6.671637e+001 -7.449350e+001 -2.777000e+002
    endloop
  endfacet
  facet normal 9.238795e-001 -3.826834e-001 0.000000e+000
    outer loop
      vertex   -6.671637e+001 -7.449350e+001 -7.770000e+001
      vertex   -6.735074e+001 -7.602500e+001 -7.770000e+001
      vertex   -6.735074e+001 -7.602500e+001 -2.777000e+002
    endloop
  endfacet
  facet normal 7.933533e-001 -6.087614e-001 0.000000e+000
    outer loop
      vertex   -6.735074e+001 -7.602500e+001 -2.777000e+002
      vertex   -6.735074e+001 -7.602500e+001 -7.770000e+001
      vertex   -6.835987e+001 -7.734013e+001 -2.777000e+002
    endloop
  endfacet
  facet normal 7.933533e-001 -6.087614e-001 0.000000e+000
    outer loop
      vertex   -6.835987e+001 -7.734013e+001 -2.777000e+002
      vertex   -6.735074e+001 -7.602500e+001 -7.770000e+001
      vertex   -6.835987e+001 -7.734013e+001 -7.770000e+001
    endloop
  endfacet
  facet normal 6.087614e-001 -7.933533e-001 0.000000e+000
    outer loop
      vertex   -6.967500e+001 -7.834926e+001 -2.777000e+002
      vertex   -6.835987e+001 -7.734013e+001 -7.770000e+001
      vertex   -6.967500e+001 -7.834926e+001 -7.770000e+001
    endloop
  endfacet
  facet normal 3.826834e-001 -9.238795e-001 -2.712463e-017
    outer loop
      vertex   -7.120650e+001 -7.898363e+001 -2.777000e+002
      vertex   -6.967500e+001 -7.834926e+001 -7.770000e+001
      vertex   -7.120650e+001 -7.898363e+001 -7.770000e+001
    endloop
  endfacet
  facet normal 1.305262e-001 -9.914449e-001 0.000000e+000
    outer loop
      vertex   -7.285000e+001 -7.920000e+001 -2.777000e+002
      vertex   -7.120650e+001 -7.898363e+001 -7.770000e+001
      vertex   -7.285000e+001 -7.920000e+001 -7.770000e+001
    endloop
  endfacet
  facet normal -1.305262e-001 -9.914449e-001 0.000000e+000
    outer loop
      vertex   -7.449350e+001 -7.898363e+001 -2.777000e+002
      vertex   -7.285000e+001 -7.920000e+001 -7.770000e+001
      vertex   -7.449350e+001 -7.898363e+001 -7.770000e+001
    endloop
  endfacet
  facet normal -3.826834e-001 -9.238795e-001 0.000000e+000
    outer loop
      vertex   -7.602500e+001 -7.834926e+001 -2.777000e+002
      vertex   -7.449350e+001 -7.898363e+001 -7.770000e+001
      vertex   -7.602500e+001 -7.834926e+001 -7.770000e+001
    endloop
  endfacet
  facet normal -6.087614e-001 -7.933533e-001 0.000000e+000
    outer loop
      vertex   -7.734013e+001 -7.734013e+001 -2.777000e+002
      vertex   -7.602500e+001 -7.834926e+001 -7.770000e+001
      vertex   -7.734013e+001 -7.734013e+001 -7.770000e+001
    endloop
  endfacet
  facet normal -7.933533e-001 -6.087614e-001 0.000000e+000
    outer loop
      vertex   -7.834926e+001 -7.602500e+001 -2.777000e+002
      vertex   -7.734013e+001 -7.734013e+001 -7.770000e+001
      vertex   -7.834926e+001 -7.602500e+001 -7.770000e+001
    endloop
  endfacet
  facet normal -9.238795e-001 -3.826834e-001 -2.712463e-017
    outer loop
      vertex   -7.898363e+001 -7.449350e+001 -2.777000e+002
      vertex   -7.834926e+001 -7.602500e+001 -7.770000e+001
      vertex   -7.898363e+001 -7.449350e+001 -7.770000e+001
    endloop
  endfacet
  facet normal -9.914449e-001 -1.305262e-001 -9.274444e-018
    outer loop
      vertex   -7.920000e+001 -7.285000e+001 -7.770000e+001
      vertex   -7.898363e+001 -7.449350e+001 -2.777000e+002
      vertex   -7.898363e+001 -7.449350e+001 -7.770000e+001
    endloop
  endfacet
  facet normal -9.914449e-001 -1.305262e-001 0.000000e+000
    outer loop
      vertex   -7.920000e+001 -7.285000e+001 -7.770000e+001
      vertex   -7.920000e+001 -7.285000e+001 -2.777000e+002
      vertex   -7.898363e+001 -7.449350e+001 -2.777000e+002
    endloop
  endfacet
  facet normal -9.914449e-001 1.305262e-001 0.000000e+000
    outer loop
      vertex   -7.920000e+001 -7.285000e+001 -7.770000e+001
      vertex   -7.898363e+001 -7.120650e+001 -7.770000e+001
      vertex   -7.920000e+001 -7.285000e+001 -2.777000e+002
    endloop
  endfacet
  facet normal -9.914449e-001 1.305262e-001 9.274444e-018
    outer loop
      vertex   -7.920000e+001 -7.285000e+001 -2.777000e+002
      vertex   -7.898363e+001 -7.120650e+001 -7.770000e+001
      vertex   -7.898363e+001 -7.120650e+001 -2.777000e+002
    endloop
  endfacet
  facet normal -9.238795e-001 3.826834e-001 2.719129e-017
    outer loop
      vertex   -7.898363e+001 -7.120650e+001 -2.777000e+002
      vertex   -7.898363e+001 -7.120650e+001 -7.770000e+001
      vertex   -7.834926e+001 -6.967500e+001 -7.770000e+001
    endloop
  endfacet
  facet normal -7.933533e-001 6.087614e-001 0.000000e+000
    outer loop
      vertex   -7.834926e+001 -6.967500e+001 -2.777000e+002
      vertex   -7.834926e+001 -6.967500e+001 -7.770000e+001
      vertex   -7.734013e+001 -6.835987e+001 -7.770000e+001
    endloop
  endfacet
  facet normal -6.087614e-001 7.933533e-001 0.000000e+000
    outer loop
      vertex   -7.734013e+001 -6.835987e+001 -2.777000e+002
      vertex   -7.734013e+001 -6.835987e+001 -7.770000e+001
      vertex   -7.602500e+001 -6.735074e+001 -7.770000e+001
    endloop
  endfacet
  facet normal -3.826834e-001 9.238795e-001 0.000000e+000
    outer loop
      vertex   -7.602500e+001 -6.735074e+001 -2.777000e+002
      vertex   -7.602500e+001 -6.735074e+001 -7.770000e+001
      vertex   -7.449350e+001 -6.671637e+001 -7.770000e+001
    endloop
  endfacet
  facet normal -1.305262e-001 9.914449e-001 0.000000e+000
    outer loop
      vertex   -7.449350e+001 -6.671637e+001 -2.777000e+002
      vertex   -7.449350e+001 -6.671637e+001 -7.770000e+001
      vertex   -7.285000e+001 -6.650000e+001 -7.770000e+001
    endloop
  endfacet
  facet normal 1.305262e-001 9.914449e-001 0.000000e+000
    outer loop
      vertex   -7.285000e+001 -6.650000e+001 -2.777000e+002
      vertex   -7.285000e+001 -6.650000e+001 -7.770000e+001
      vertex   -7.120650e+001 -6.671637e+001 -7.770000e+001
    endloop
  endfacet
  facet normal 3.826834e-001 9.238795e-001 2.719129e-017
    outer loop
      vertex   -7.120650e+001 -6.671637e+001 -2.777000e+002
      vertex   -7.120650e+001 -6.671637e+001 -7.770000e+001
      vertex   -6.967500e+001 -6.735074e+001 -7.770000e+001
    endloop
  endfacet
  facet normal 6.087614e-001 7.933533e-001 0.000000e+000
    outer loop
      vertex   -6.967500e+001 -6.735074e+001 -2.777000e+002
      vertex   -6.967500e+001 -6.735074e+001 -7.770000e+001
      vertex   -6.835987e+001 -6.835987e+001 -7.770000e+001
    endloop
  endfacet
  facet normal 7.933533e-001 6.087614e-001 0.000000e+000
    outer loop
      vertex   -6.835987e+001 -6.835987e+001 -2.777000e+002
      vertex   -6.835987e+001 -6.835987e+001 -7.770000e+001
      vertex   -6.735074e+001 -6.967500e+001 -7.770000e+001
    endloop
  endfacet
  facet normal 9.238795e-001 3.826834e-001 0.000000e+000
    outer loop
      vertex   -6.735074e+001 -6.967500e+001 -2.777000e+002
      vertex   -6.735074e+001 -6.967500e+001 -7.770000e+001
      vertex   -6.671637e+001 -7.120650e+001 -7.770000e+001
    endloop
  endfacet
  facet normal 9.914449e-001 1.305262e-001 0.000000e+000
    outer loop
      vertex   -6.671637e+001 -7.120650e+001 -2.777000e+002
      vertex   -6.671637e+001 -7.120650e+001 -7.770000e+001
      vertex   -6.650000e+001 -7.285000e+001 -7.770000e+001
    endloop
  endfacet
  facet normal 9.914449e-001 1.305262e-001 0.000000e+000
    outer loop
      vertex   -6.650000e+001 -7.285000e+001 -2.777000e+002
      vertex   -6.671637e+001 -7.120650e+001 -2.777000e+002
      vertex   -6.650000e+001 -7.285000e+001 -7.770000e+001
    endloop
  endfacet
  facet normal 9.238795e-001 3.826834e-001 0.000000e+000
    outer loop
      vertex   -6.671637e+001 -7.120650e+001 -2.777000e+002
      vertex   -6.735074e+001 -6.967500e+001 -2.777000e+002
      vertex   -6.671637e+001 -7.120650e+001 -7.770000e+001
    endloop
  endfacet
  facet normal 7.933533e-001 6.087614e-001 0.000000e+000
    outer loop
      vertex   -6.735074e+001 -6.967500e+001 -2.777000e+002
      vertex   -6.835987e+001 -6.835987e+001 -2.777000e+002
      vertex   -6.735074e+001 -6.967500e+001 -7.770000e+001
    endloop
  endfacet
  facet normal 6.087614e-001 7.933533e-001 0.000000e+000
    outer loop
      vertex   -6.835987e+001 -6.835987e+001 -2.777000e+002
      vertex   -6.967500e+001 -6.735074e+001 -2.777000e+002
      vertex   -6.835987e+001 -6.835987e+001 -7.770000e+001
    endloop
  endfacet
  facet normal 3.826834e-001 9.238795e-001 0.000000e+000
    outer loop
      vertex   -6.967500e+001 -6.735074e+001 -2.777000e+002
      vertex   -7.120650e+001 -6.671637e+001 -2.777000e+002
      vertex   -6.967500e+001 -6.735074e+001 -7.770000e+001
    endloop
  endfacet
  facet normal 1.305262e-001 9.914449e-001 9.376416e-018
    outer loop
      vertex   -7.120650e+001 -6.671637e+001 -2.777000e+002
      vertex   -7.285000e+001 -6.650000e+001 -2.777000e+002
      vertex   -7.120650e+001 -6.671637e+001 -7.770000e+001
    endloop
  endfacet
  facet normal -1.305262e-001 9.914449e-001 0.000000e+000
    outer loop
      vertex   -7.285000e+001 -6.650000e+001 -2.777000e+002
      vertex   -7.449350e+001 -6.671637e+001 -2.777000e+002
      vertex   -7.285000e+001 -6.650000e+001 -7.770000e+001
    endloop
  endfacet
  facet normal -3.826834e-001 9.238795e-001 0.000000e+000
    outer loop
      vertex   -7.449350e+001 -6.671637e+001 -2.777000e+002
      vertex   -7.602500e+001 -6.735074e+001 -2.777000e+002
      vertex   -7.449350e+001 -6.671637e+001 -7.770000e+001
    endloop
  endfacet
  facet normal -6.087614e-001 7.933533e-001 0.000000e+000
    outer loop
      vertex   -7.602500e+001 -6.735074e+001 -2.777000e+002
      vertex   -7.734013e+001 -6.835987e+001 -2.777000e+002
      vertex   -7.602500e+001 -6.735074e+001 -7.770000e+001
    endloop
  endfacet
  facet normal -7.933533e-001 6.087614e-001 0.000000e+000
    outer loop
      vertex   -7.734013e+001 -6.835987e+001 -2.777000e+002
      vertex   -7.834926e+001 -6.967500e+001 -2.777000e+002
      vertex   -7.734013e+001 -6.835987e+001 -7.770000e+001
    endloop
  endfacet
  facet normal -9.238795e-001 3.826834e-001 0.000000e+000
    outer loop
      vertex   -7.834926e+001 -6.967500e+001 -2.777000e+002
      vertex   -7.898363e+001 -7.120650e+001 -2.777000e+002
      vertex   -7.834926e+001 -6.967500e+001 -7.770000e+001
    endloop
  endfacet
  facet normal -9.238795e-001 -3.826834e-001 0.000000e+000
    outer loop
      vertex   -7.898363e+001 -7.449350e+001 -2.777000e+002
      vertex   -7.834926e+001 -7.602500e+001 -2.777000e+002
      vertex   -7.834926e+001 -7.602500e+001 -7.770000e+001
    endloop
  endfacet
  facet normal -7.933533e-001 -6.087614e-001 0.000000e+000
    outer loop
      vertex   -7.834926e+001 -7.602500e+001 -2.777000e+002
      vertex   -7.734013e+001 -7.734013e+001 -2.777000e+002
      vertex   -7.734013e+001 -7.734013e+001 -7.770000e+001
    endloop
  endfacet
  facet normal -6.087614e-001 -7.933533e-001 0.000000e+000
    outer loop
      vertex   -7.734013e+001 -7.734013e+001 -2.777000e+002
      vertex   -7.602500e+001 -7.834926e+001 -2.777000e+002
      vertex   -7.602500e+001 -7.834926e+001 -7.770000e+001
    endloop
  endfacet
  facet normal -3.826834e-001 -9.238795e-001 0.000000e+000
    outer loop
      vertex   -7.602500e+001 -7.834926e+001 -2.777000e+002
      vertex   -7.449350e+001 -7.898363e+001 -2.777000e+002
      vertex   -7.449350e+001 -7.898363e+001 -7.770000e+001
    endloop
  endfacet
  facet normal -1.305262e-001 -9.914449e-001 0.000000e+000
    outer loop
      vertex   -7.449350e+001 -7.898363e+001 -2.777000e+002
      vertex   -7.285000e+001 -7.920000e+001 -2.777000e+002
      vertex   -7.285000e+001 -7.920000e+001 -7.770000e+001
    endloop
  endfacet
  facet normal 1.305262e-001 -9.914449e-001 -9.274444e-018
    outer loop
      vertex   -7.285000e+001 -7.920000e+001 -2.777000e+002
      vertex   -7.120650e+001 -7.898363e+001 -2.777000e+002
      vertex   -7.120650e+001 -7.898363e+001 -7.770000e+001
    endloop
  endfacet
  facet normal 3.826834e-001 -9.238795e-001 0.000000e+000
    outer loop
      vertex   -7.120650e+001 -7.898363e+001 -2.777000e+002
      vertex   -6.967500e+001 -7.834926e+001 -2.777000e+002
      vertex   -6.967500e+001 -7.834926e+001 -7.770000e+001
    endloop
  endfacet
  facet normal 6.087614e-001 -7.933533e-001 0.000000e+000
    outer loop
      vertex   -6.967500e+001 -7.834926e+001 -2.777000e+002
      vertex   -6.835987e+001 -7.734013e+001 -2.777000e+002
      vertex   -6.835987e+001 -7.734013e+001 -7.770000e+001
    endloop
  endfacet
  facet normal 0.000000e+000 0.000000e+000 -1.000000e+000
    outer loop
      vertex   -6.671637e+001 -7.449350e+001 -2.777000e+002
      vertex   -7.834926e+001 -7.602500e+001 -2.777000e+002
      vertex   -6.650000e+001 -7.285000e+001 -2.777000e+002
    endloop
  endfacet
  facet normal 0.000000e+000 0.000000e+000 -1.000000e+000
    outer loop
      vertex   -6.671637e+001 -7.449350e+001 -2.777000e+002
      vertex   -6.735074e+001 -7.602500e+001 -2.777000e+002
      vertex   -7.834926e+001 -7.602500e+001 -2.777000e+002
    endloop
  endfacet
  facet normal 0.000000e+000 0.000000e+000 -1.000000e+000
    outer loop
      vertex   -7.834926e+001 -7.602500e+001 -2.777000e+002
      vertex   -6.735074e+001 -7.602500e+001 -2.777000e+002
      vertex   -7.734013e+001 -7.734013e+001 -2.777000e+002
    endloop
  endfacet
  facet normal 0.000000e+000 0.000000e+000 -1.000000e+000
    outer loop
      vertex   -7.734013e+001 -7.734013e+001 -2.777000e+002
      vertex   -6.735074e+001 -7.602500e+001 -2.777000e+002
      vertex   -6.835987e+001 -7.734013e+001 -2.777000e+002
    endloop
  endfacet
  facet normal 0.000000e+000 0.000000e+000 -1.000000e+000
    outer loop
      vertex   -7.602500e+001 -7.834926e+001 -2.777000e+002
      vertex   -6.835987e+001 -7.734013e+001 -2.777000e+002
      vertex   -7.449350e+001 -7.898363e+001 -2.777000e+002
    endloop
  endfacet
  facet normal 0.000000e+000 0.000000e+000 -1.000000e+000
    outer loop
      vertex   -7.602500e+001 -7.834926e+001 -2.777000e+002
      vertex   -7.734013e+001 -7.734013e+001 -2.777000e+002
      vertex   -6.835987e+001 -7.734013e+001 -2.777000e+002
    endloop
  endfacet
  facet normal 0.000000e+000 0.000000e+000 -1.000000e+000
    outer loop
      vertex   -6.967500e+001 -7.834926e+001 -2.777000e+002
      vertex   -7.120650e+001 -7.898363e+001 -2.777000e+002
      vertex   -6.835987e+001 -7.734013e+001 -2.777000e+002
    endloop
  endfacet
  facet normal 0.000000e+000 0.000000e+000 -1.000000e+000
    outer loop
      vertex   -6.835987e+001 -7.734013e+001 -2.777000e+002
      vertex   -7.120650e+001 -7.898363e+001 -2.777000e+002
      vertex   -7.285000e+001 -7.920000e+001 -2.777000e+002
    endloop
  endfacet
  facet normal 0.000000e+000 0.000000e+000 -1.000000e+000
    outer loop
      vertex   -7.449350e+001 -7.898363e+001 -2.777000e+002
      vertex   -6.835987e+001 -7.734013e+001 -2.777000e+002
      vertex   -7.285000e+001 -7.920000e+001 -2.777000e+002
    endloop
  endfacet
  facet normal 0.000000e+000 0.000000e+000 -1.000000e+000
    outer loop
      vertex   -7.834926e+001 -7.602500e+001 -2.777000e+002
      vertex   -7.898363e+001 -7.449350e+001 -2.777000e+002
      vertex   -6.650000e+001 -7.285000e+001 -2.777000e+002
    endloop
  endfacet
  facet normal 0.000000e+000 0.000000e+000 -1.000000e+000
    outer loop
      vertex   -6.650000e+001 -7.285000e+001 -2.777000e+002
      vertex   -7.898363e+001 -7.449350e+001 -2.777000e+002
      vertex   -7.920000e+001 -7.285000e+001 -2.777000e+002
    endloop
  endfacet
  facet normal 0.000000e+000 0.000000e+000 -1.000000e+000
    outer loop
      vertex   -7.898363e+001 -7.120650e+001 -2.777000e+002
      vertex   -6.650000e+001 -7.285000e+001 -2.777000e+002
      vertex   -7.920000e+001 -7.285000e+001 -2.777000e+002
    endloop
  endfacet
  facet normal 0.000000e+000 0.000000e+000 -1.000000e+000
    outer loop
      vertex   -7.898363e+001 -7.120650e+001 -2.777000e+002
      vertex   -7.834926e+001 -6.967500e+001 -2.777000e+002
      vertex   -6.650000e+001 -7.285000e+001 -2.777000e+002
    endloop
  endfacet
  facet normal 0.000000e+000 0.000000e+000 -1.000000e+000
    outer loop
      vertex   -6.650000e+001 -7.285000e+001 -2.777000e+002
      vertex   -7.834926e+001 -6.967500e+001 -2.777000e+002
      vertex   -6.671637e+001 -7.120650e+001 -2.777000e+002
    endloop
  endfacet
  facet normal 0.000000e+000 0.000000e+000 -1.000000e+000
    outer loop
      vertex   -6.671637e+001 -7.120650e+001 -2.777000e+002
      vertex   -7.834926e+001 -6.967500e+001 -2.777000e+002
      vertex   -6.735074e+001 -6.967500e+001 -2.777000e+002
    endloop
  endfacet
  facet normal 0.000000e+000 0.000000e+000 -1.000000e+000
    outer loop
      vertex   -6.735074e+001 -6.967500e+001 -2.777000e+002
      vertex   -7.834926e+001 -6.967500e+001 -2.777000e+002
      vertex   -6.835987e+001 -6.835987e+001 -2.777000e+002
    endloop
  endfacet
  facet normal 0.000000e+000 0.000000e+000 -1.000000e+000
    outer loop
      vertex   -6.835987e+001 -6.835987e+001 -2.777000e+002
      vertex   -7.834926e+001 -6.967500e+001 -2.777000e+002
      vertex   -7.734013e+001 -6.835987e+001 -2.777000e+002
    endloop
  endfacet
  facet normal 0.000000e+000 0.000000e+000 -1.000000e+000
    outer loop
      vertex   -6.967500e+001 -6.735074e+001 -2.777000e+002
      vertex   -7.734013e+001 -6.835987e+001 -2.777000e+002
      vertex   -7.120650e+001 -6.671637e+001 -2.777000e+002
    endloop
  endfacet
  facet normal 0.000000e+000 0.000000e+000 -1.000000e+000
    outer loop
      vertex   -6.967500e+001 -6.735074e+001 -2.777000e+002
      vertex   -6.835987e+001 -6.835987e+001 -2.777000e+002
      vertex   -7.734013e+001 -6.835987e+001 -2.777000e+002
    endloop
  endfacet
  facet normal 0.000000e+000 0.000000e+000 -1.000000e+000
    outer loop
      vertex   -7.120650e+001 -6.671637e+001 -2.777000e+002
      vertex   -7.734013e+001 -6.835987e+001 -2.777000e+002
      vertex   -7.285000e+001 -6.650000e+001 -2.777000e+002
    endloop
  endfacet
  facet normal 0.000000e+000 0.000000e+000 -1.000000e+000
    outer loop
      vertex   -7.285000e+001 -6.650000e+001 -2.777000e+002
      vertex   -7.734013e+001 -6.835987e+001 -2.777000e+002
      vertex   -7.602500e+001 -6.735074e+001 -2.777000e+002
    endloop
  endfacet
  facet normal 0.000000e+000 0.000000e+000 -1.000000e+000
    outer loop
      vertex   -7.449350e+001 -6.671637e+001 -2.777000e+002
      vertex   -7.285000e+001 -6.650000e+001 -2.777000e+002
      vertex   -7.602500e+001 -6.735074e+001 -2.777000e+002
    endloop
  endfacet
  facet normal 0.000000e+000 0.000000e+000 1.000000e+000
    outer loop
      vertex   -6.671637e+001 -7.120650e+001 -7.770000e+001
      vertex   -7.898363e+001 -7.120650e+001 -7.770000e+001
      vertex   -6.650000e+001 -7.285000e+001 -7.770000e+001
    endloop
  endfacet
  facet normal 0.000000e+000 0.000000e+000 1.000000e+000
    outer loop
      vertex   -6.671637e+001 -7.120650e+001 -7.770000e+001
      vertex   -6.735074e+001 -6.967500e+001 -7.770000e+001
      vertex   -7.898363e+001 -7.120650e+001 -7.770000e+001
    endloop
  endfacet
  facet normal 0.000000e+000 0.000000e+000 1.000000e+000
    outer loop
      vertex   -7.898363e+001 -7.120650e+001 -7.770000e+001
      vertex   -6.735074e+001 -6.967500e+001 -7.770000e+001
      vertex   -7.834926e+001 -6.967500e+001 -7.770000e+001
    endloop
  endfacet
  facet normal 0.000000e+000 0.000000e+000 1.000000e+000
    outer loop
      vertex   -7.834926e+001 -6.967500e+001 -7.770000e+001
      vertex   -6.735074e+001 -6.967500e+001 -7.770000e+001
      vertex   -7.734013e+001 -6.835987e+001 -7.770000e+001
    endloop
  endfacet
  facet normal 0.000000e+000 0.000000e+000 1.000000e+000
    outer loop
      vertex   -7.734013e+001 -6.835987e+001 -7.770000e+001
      vertex   -6.735074e+001 -6.967500e+001 -7.770000e+001
      vertex   -6.835987e+001 -6.835987e+001 -7.770000e+001
    endloop
  endfacet
  facet normal 0.000000e+000 0.000000e+000 1.000000e+000
    outer loop
      vertex   -7.602500e+001 -6.735074e+001 -7.770000e+001
      vertex   -6.835987e+001 -6.835987e+001 -7.770000e+001
      vertex   -7.449350e+001 -6.671637e+001 -7.770000e+001
    endloop
  endfacet
  facet normal 0.000000e+000 0.000000e+000 1.000000e+000
    outer loop
      vertex   -7.602500e+001 -6.735074e+001 -7.770000e+001
      vertex   -7.734013e+001 -6.835987e+001 -7.770000e+001
      vertex   -6.835987e+001 -6.835987e+001 -7.770000e+001
    endloop
  endfacet
  facet normal 0.000000e+000 0.000000e+000 1.000000e+000
    outer loop
      vertex   -6.967500e+001 -6.735074e+001 -7.770000e+001
      vertex   -7.120650e+001 -6.671637e+001 -7.770000e+001
      vertex   -6.835987e+001 -6.835987e+001 -7.770000e+001
    endloop
  endfacet
  facet normal 0.000000e+000 0.000000e+000 1.000000e+000
    outer loop
      vertex   -6.835987e+001 -6.835987e+001 -7.770000e+001
      vertex   -7.120650e+001 -6.671637e+001 -7.770000e+001
      vertex   -7.285000e+001 -6.650000e+001 -7.770000e+001
    endloop
  endfacet
  facet normal 0.000000e+000 0.000000e+000 1.000000e+000
    outer loop
      vertex   -7.449350e+001 -6.671637e+001 -7.770000e+001
      vertex   -6.835987e+001 -6.835987e+001 -7.770000e+001
      vertex   -7.285000e+001 -6.650000e+001 -7.770000e+001
    endloop
  endfacet
  facet normal 0.000000e+000 0.000000e+000 1.000000e+000
    outer loop
      vertex   -7.898363e+001 -7.120650e+001 -7.770000e+001
      vertex   -7.920000e+001 -7.285000e+001 -7.770000e+001
      vertex   -6.650000e+001 -7.285000e+001 -7.770000e+001
    endloop
  endfacet
  facet normal 0.000000e+000 0.000000e+000 1.000000e+000
    outer loop
      vertex   -6.650000e+001 -7.285000e+001 -7.770000e+001
      vertex   -7.920000e+001 -7.285000e+001 -7.770000e+001
      vertex   -7.898363e+001 -7.449350e+001 -7.770000e+001
    endloop
  endfacet
  facet normal 0.000000e+000 0.000000e+000 1.000000e+000
    outer loop
      vertex   -6.671637e+001 -7.449350e+001 -7.770000e+001
      vertex   -7.898363e+001 -7.449350e+001 -7.770000e+001
      vertex   -6.735074e+001 -7.602500e+001 -7.770000e+001
    endloop
  endfacet
  facet normal 0.000000e+000 0.000000e+000 1.000000e+000
    outer loop
      vertex   -6.671637e+001 -7.449350e+001 -7.770000e+001
      vertex   -6.650000e+001 -7.285000e+001 -7.770000e+001
      vertex   -7.898363e+001 -7.449350e+001 -7.770000e+001
    endloop
  endfacet
  facet normal 0.000000e+000 0.000000e+000 1.000000e+000
    outer loop
      vertex   -7.898363e+001 -7.449350e+001 -7.770000e+001
      vertex   -7.834926e+001 -7.602500e+001 -7.770000e+001
      vertex   -6.735074e+001 -7.602500e+001 -7.770000e+001
    endloop
  endfacet
  facet normal 0.000000e+000 0.000000e+000 1.000000e+000
    outer loop
      vertex   -6.735074e+001 -7.602500e+001 -7.770000e+001
      vertex   -7.834926e+001 -7.602500e+001 -7.770000e+001
      vertex   -6.835987e+001 -7.734013e+001 -7.770000e+001
    endloop
  endfacet
  facet normal 0.000000e+000 0.000000e+000 1.000000e+000
    outer loop
      vertex   -6.835987e+001 -7.734013e+001 -7.770000e+001
      vertex   -7.834926e+001 -7.602500e+001 -7.770000e+001
      vertex   -7.734013e+001 -7.734013e+001 -7.770000e+001
    endloop
  endfacet
  facet normal 0.000000e+000 0.000000e+000 1.000000e+000
    outer loop
      vertex   -6.967500e+001 -7.834926e+001 -7.770000e+001
      vertex   -7.734013e+001 -7.734013e+001 -7.770000e+001
      vertex   -7.120650e+001 -7.898363e+001 -7.770000e+001
    endloop
  endfacet
  facet normal 0.000000e+000 0.000000e+000 1.000000e+000
    outer loop
      vertex   -6.967500e+001 -7.834926e+001 -7.770000e+001
      vertex   -6.835987e+001 -7.734013e+001 -7.770000e+001
      vertex   -7.734013e+001 -7.734013e+001 -7.770000e+001
    endloop
  endfacet
  facet normal 0.000000e+000 0.000000e+000 1.000000e+000
    outer loop
      vertex   -7.120650e+001 -7.898363e+001 -7.770000e+001
      vertex   -7.734013e+001 -7.734013e+001 -7.770000e+001
      vertex   -7.285000e+001 -7.920000e+001 -7.770000e+001
    endloop
  endfacet
  facet normal 0.000000e+000 0.000000e+000 1.000000e+000
    outer loop
      vertex   -7.285000e+001 -7.920000e+001 -7.770000e+001
      vertex   -7.734013e+001 -7.734013e+001 -7.770000e+001
      vertex   -7.602500e+001 -7.834926e+001 -7.770000e+001
    endloop
  endfacet
  facet normal 0.000000e+000 0.000000e+000 1.000000e+000
    outer loop
      vertex   -7.449350e+001 -7.898363e+001 -7.770000e+001
      vertex   -7.285000e+001 -7.920000e+001 -7.770000e+001
      vertex   -7.602500e+001 -7.834926e+001 -7.770000e+001
    endloop
  endfacet
endsolid
